<svg width="97" height="40" viewBox="0 0 97 40" fill="none" xmlns="http://www.w3.org/2000/svg">
<path d="M48.259 0.0976062C48.899 -0.123364 49.5982 0.0611041 50.1847 0.349344C50.5946 0.612271 51.0045 0.877995 51.4634 1.05002C51.4985 1.11575 51.5715 1.24581 51.6066 1.31015C51.5884 1.3535 51.5533 1.44301 51.535 1.48636C51.8621 2.22759 52.0712 3.10588 51.754 3.88473C51.5378 4.14766 51.1617 4.18835 50.8571 4.29017C50.8557 4.66638 50.916 5.03853 50.9483 5.41194C51.5996 5.51683 52.1509 5.0651 52.7952 5.10986C52.8822 4.75043 52.951 4.38513 53.0664 4.03284C53.1997 4.26639 53.2052 4.53505 53.2067 4.79798C53.3752 4.84553 53.5464 4.88889 53.7188 4.9307C53.7205 4.99517 53.7217 5.12384 53.7217 5.18817C56.5458 5.20496 59.3684 5.17545 62.1926 5.20356C62.1856 5.29978 62.1719 5.49292 62.1662 5.58956C62.2392 5.58956 62.388 5.59096 62.4621 5.59096C62.4593 5.07923 62.4621 4.56582 62.4607 4.05409C62.5323 4.05116 62.6727 4.04696 62.7429 4.04556C62.7445 4.44834 62.7458 4.85112 62.75 5.25405C62.8116 5.32957 62.9351 5.48047 62.9972 5.55599C63.0435 5.50131 63.136 5.3939 63.1822 5.33922C63.3969 5.53935 63.2748 5.81346 63.2653 6.05933C64.0555 6.0508 64.8539 6.10394 65.6416 6.03961C65.7006 5.99625 65.8185 5.91094 65.8774 5.86773C65.9857 5.90954 66.095 5.95164 66.2031 5.995C66.5582 5.98632 66.9147 5.98521 67.2712 5.98381C67.2639 6.16702 67.2583 6.35009 67.2513 6.53344C66.7923 6.5263 66.3319 6.51665 65.88 6.59483C65.588 6.34463 65.1964 6.42407 64.8441 6.41456C64.3023 6.43973 63.7434 6.34463 63.2187 6.51651C62.9068 6.60322 62.5646 6.58238 62.2895 6.40603C62.2232 6.56966 62.3246 6.93608 62.0478 6.92195C60.9586 6.93608 59.8707 6.9123 58.7829 6.92908C58.6342 7.0074 58.484 7.08153 58.3355 7.15411C58.1783 7.62122 57.7277 7.93296 57.3442 8.21826C57.2965 8.93572 57.5814 9.60562 57.6923 10.302C57.4776 10.3634 57.2614 10.4266 57.0495 10.4965C56.7449 11.2126 56.9316 12.19 56.2269 12.6896C55.6865 13.0027 55.3289 13.6838 54.6001 13.5762C54.9707 13.8839 54.4991 13.7874 54.5482 13.5413C53.2302 13.4252 52.1199 12.6546 50.9746 12.0673C50.9212 12.3889 50.8371 12.7051 50.75 13.0198C51.1851 13.1023 51.5444 13.4211 51.6216 13.8659C51.7606 14.8352 51.4827 15.7975 51.4869 16.7694C51.5178 17.34 51.2721 17.8629 50.9661 18.3286C50.698 18.6307 50.2756 18.3201 49.9541 18.2755C49.881 18.4167 49.8095 18.5581 49.7394 18.7006C49.8306 19.0809 49.8699 19.4767 49.9976 19.8487C50.7149 20.6389 51.3676 21.4949 51.8687 22.439C52.3845 23.508 52.8441 24.6031 53.2458 25.7198C53.2849 25.9367 53.4899 26.0146 53.6698 26.0932C53.6937 26.317 53.7175 26.5405 53.74 26.7672C53.8102 26.8693 53.8817 26.9712 53.9547 27.0747C53.9982 28.4538 53.8284 29.8271 53.6134 31.1878C53.4803 31.8019 53.8408 32.4018 53.6948 33.0199C53.7116 33.3364 53.4929 33.5754 53.3902 33.8552C53.3705 34.5083 53.3383 35.1696 53.4101 35.8216C53.4604 36.2999 53.8663 36.6075 54.1414 36.9643C54.4418 37.2819 54.693 37.7083 55.1478 37.8214C55.5759 37.9487 55.9844 38.1333 56.3617 38.3754C56.4768 38.6592 56.4557 38.9601 56.401 39.2549C55.5785 39.406 54.7391 39.3306 53.9081 39.3433C53.2678 39.3767 52.6968 39.0341 52.0747 38.9626C51.4726 38.9475 50.7385 39.2453 50.2756 38.7082C50.4718 37.9631 50.4875 37.1629 50.8465 36.4676C50.9616 35.6804 50.743 34.8817 50.789 34.0873C50.7205 34.03 50.5827 33.9153 50.5139 33.8577C50.5633 33.339 50.3063 32.8773 50.2205 32.3809C50.1647 31.6561 50.0984 30.9319 50.0142 30.2103C49.9482 29.8592 50.1307 29.5377 50.3791 29.3041C50.4016 28.8986 50.4566 28.497 50.4956 28.0944C50.4353 27.8327 50.2261 27.6385 50.0914 27.4147C49.6408 27.6038 49.0331 27.5141 48.765 27.0747C48.1293 26.1322 47.4947 25.1896 46.8518 24.2525C46.5992 24.2358 46.3325 24.2622 46.0967 24.1616C45.8246 23.8834 45.6826 23.5128 45.5088 23.1743C45.2602 23.4526 45.2784 23.879 44.9839 24.1323C44.3607 24.7282 44.195 25.6037 43.8694 26.3672C43.6198 26.8621 43.7602 27.4593 43.482 27.942C43.3332 28.202 42.9598 28.2537 42.8616 28.5505C42.7325 28.8705 42.5809 29.2021 42.2791 29.3967C41.952 29.6104 41.8652 30.0163 41.7193 30.3517C41.586 30.6609 41.7839 30.9852 41.7376 31.3028C41.5298 32.3113 40.8856 33.1545 40.6147 34.142C40.4911 34.5867 40.3141 35.0874 39.7948 35.1824C39.2039 36.2341 38.8784 37.5209 39.2124 38.705C39.4174 39.077 39.4061 39.4952 39.343 39.905C38.4041 39.9778 37.4411 40.1036 36.519 39.8422C36.3029 39.4155 36.3337 38.9134 36.3787 38.4523C36.6635 37.2395 37.0412 36.0481 37.2726 34.8229C36.9835 34.567 37.051 34.1756 37.0565 33.8328C37.0468 33.1936 37.4832 32.6818 37.7864 32.1573C37.9002 31.6189 37.8468 31.0403 38.126 30.5462C38.4546 29.928 38.7324 29.2597 39.2392 28.7603C39.336 28.3197 39.6619 27.987 39.7935 27.5628C39.9339 27.188 39.6883 26.8076 39.7377 26.4245C39.8582 25.2621 40.0703 24.1112 40.2542 22.9574C39.9063 22.6679 40.0184 22.2079 39.9075 21.8176C39.9623 21.6637 40.031 21.517 40.1138 21.3742C40.0268 21.2945 39.9413 21.2134 39.8542 21.1338C39.9384 20.7236 39.9145 19.9894 40.5462 20.1227C40.5855 18.7647 40.1124 17.4501 40.2711 16.0905C40.3553 16.1883 40.4379 16.2877 40.5223 16.387L40.4774 15.9269C40.7413 15.7871 41.022 15.6794 41.3168 15.6248C40.8367 15.562 40.3693 15.4404 39.8988 15.3311C39.7851 15.0331 39.8486 14.7158 39.8904 14.4109C40.0729 13.3816 40.1402 12.3382 40.1781 11.2949C40.7101 11.1106 41.2968 11.2671 41.8162 11.0208C41.655 9.71597 41.6143 8.35392 42.0801 7.10208C42.4548 6.03625 43.1708 5.00832 44.288 4.63365C44.8157 4.50792 45.4796 4.36653 45.8527 4.877C45.9552 4.7833 46.0577 4.6868 46.1601 4.59309C45.3083 2.90729 46.3259 0.444446 48.259 0.0976062V0.0976062ZM55.0762 7.40921C54.8517 7.54626 54.6313 7.70304 54.8674 7.95198C54.7523 8.02037 54.6369 8.08624 54.5204 8.14904C54.3379 8.28889 53.9281 8.36847 53.9758 8.65125C54.1808 8.97924 54.3574 9.32401 54.5037 9.68184C54.9513 9.31556 55.3078 8.823 55.5493 8.30162C55.5998 8.24987 55.7024 8.14638 55.7528 8.09589C55.7303 7.85674 55.677 7.62304 55.5829 7.40221C55.4145 7.40515 55.2447 7.40781 55.0762 7.40921V7.40921Z" fill="#D9D9D9"/>
<path d="M59.1947 19.929C59.8374 19.1208 60.8761 18.6731 61.9062 18.6899C65.0405 18.6928 68.1762 18.6885 71.3105 18.6913C72.8393 18.7234 74.3298 19.9137 74.5067 21.4607C70.1681 21.4463 65.8306 21.4733 61.4937 21.4463C61.4894 24.3386 61.4838 27.2322 61.4937 30.1259C64.8231 30.1205 68.1522 30.1147 71.4819 30.1287C71.4691 29.0924 71.4858 28.0561 71.472 27.0199C69.8257 27.0293 68.1791 27.0325 66.5327 27.0199C65.212 26.9694 64.2295 25.8325 63.932 24.6214C67.472 24.6088 71.0105 24.6074 74.5502 24.6228C74.535 26.3947 74.5589 28.1682 74.5376 29.9402C74.4955 31.4324 73.2071 32.7458 71.7303 32.8955C68.3153 32.8955 64.8989 32.8941 61.4838 32.8941C60.4634 32.8868 59.5609 32.2449 58.9854 31.4436C58.5924 30.8771 58.5038 30.1738 58.4478 29.5065C58.4422 27.129 58.4506 24.7501 58.4448 22.3725C58.4578 21.5107 58.6107 20.6004 59.1947 19.929V19.929ZM79.9022 18.7876C80.2548 18.6925 80.6223 18.6857 80.9861 18.6899C83.8832 18.6985 86.7817 18.6802 89.6788 18.6969C91.321 18.7668 92.7638 20.1796 92.8271 21.8212C92.8301 24.4744 92.8301 27.1287 92.8271 29.7834C92.7976 31.4098 91.3519 32.9258 89.6945 32.898C86.5083 32.884 83.322 32.9078 80.1355 32.8868C78.5466 32.7106 77.3269 31.1989 77.3156 29.6338C77.2932 27.2142 77.3184 24.7919 77.303 22.3725C77.2904 21.6593 77.4195 20.9264 77.7985 20.3111C78.2433 19.5375 79.0405 18.9962 79.9022 18.7876V18.7876ZM80.4021 21.3696C80.4077 24.3541 80.3894 27.3399 80.4105 30.3244C83.5223 30.3329 86.6359 30.323 89.7476 30.3283C89.7571 27.3413 89.749 24.3538 89.7515 21.365C86.6356 21.3639 83.5181 21.3584 80.4021 21.3696V21.3696ZM0.00495156 22.0801C0.0710624 20.462 1.43104 18.9416 3.08591 18.8787C6.17796 18.8757 9.27156 18.8757 12.3639 18.8801C14.0342 18.8634 15.4255 20.3669 15.5515 21.9794C15.3284 21.9977 15.1052 22.0114 14.882 22.0144C11.2003 22.0103 7.51857 22.0158 3.83812 22.0114C3.83657 24.6183 3.82282 27.2251 3.84514 29.8321C7.75297 29.8264 11.6593 29.8236 15.567 29.8336C15.4561 31.5046 14.0439 32.9875 12.3416 33.0531C9.53993 33.0924 6.73829 33.0545 3.93651 33.0714C3.23891 33.0952 2.52025 33.0083 1.89157 32.6909C0.807967 32.1386 0.0414459 31.0126 0.00382865 29.7903C0.000740674 27.2197 -0.00347021 24.6505 0.00495156 22.0801V22.0801ZM18.5272 20.813C19.0423 19.6926 20.2214 18.8606 21.4764 18.8759C24.5644 18.8788 27.6537 18.8759 30.7433 18.8773C32.3559 18.8871 33.7764 20.2939 33.8902 21.8815C29.8167 21.9388 25.7406 21.8897 21.666 21.9053C21.6476 22.722 21.6562 23.5388 21.6548 24.3568C24.6838 24.3664 27.7142 24.3596 30.7433 24.3596C31.6414 24.3945 32.5848 24.6814 33.1967 25.3735C33.8843 25.9862 34.175 26.9191 34.1975 27.8169C34.2128 28.7134 34.2128 29.6142 34.0668 30.502C33.7327 31.9398 32.3529 33.0111 30.8807 33.0573C27.936 33.0851 24.9895 33.0601 22.0448 33.0713C21.3502 33.0854 20.6315 32.9859 20.0152 32.6489C19.0383 32.1411 18.3365 31.1199 18.2398 30.0237C22.3861 30.0435 26.5338 30.0363 30.6801 30.0266C30.6899 29.1565 30.6843 28.2867 30.6843 27.4169C27.616 27.396 24.5463 27.414 21.4764 27.4083C19.7122 27.4224 18.1513 25.8069 18.1988 24.0547C18.2605 22.975 18.0108 21.8158 18.5272 20.813V20.813ZM93.7857 19.1669C94.1759 19.1571 94.5703 19.1417 94.9591 19.2005C94.778 19.2466 94.5939 19.2704 94.4089 19.2732C94.385 19.6943 94.3822 20.1153 94.3878 20.536C94.3471 20.536 94.2672 20.536 94.2278 20.5373C94.2306 20.1052 94.2348 19.673 94.2292 19.2423C94.1197 19.251 93.9022 19.2704 93.7941 19.2787L93.7857 19.1669V19.1669ZM95.1779 19.1513C95.2609 19.1556 95.4292 19.164 95.5137 19.1682C95.633 19.547 95.7733 19.9191 95.9474 20.2785C96.1102 19.9163 96.2169 19.5301 96.3965 19.178C96.4751 19.1668 96.6324 19.143 96.7107 19.1318C96.6672 19.6465 96.8454 20.2157 96.5664 20.6842C96.5158 20.2283 96.5369 19.7694 96.5073 19.3121C96.2938 19.7388 96.193 20.2183 95.9137 20.6129C95.7002 20.2074 95.6091 19.7456 95.3536 19.3629C95.3369 19.7712 95.3452 20.181 95.3396 20.5905L95.1894 20.5736C95.1893 20.0997 95.1823 19.6255 95.1779 19.1513V19.1513Z" fill="#D9D9D9"/>
</svg>
